# xmcd
#
# Track frame offsets:
#	150
#	16887
#	31910
#	54927
#
# Disc length: 1044 seconds
#
# Revision: 1
# Processed by: cddbd v1.5PL3 Copyright (c) Steve Scherf et al.
# Submitted via: CDex 1.50Beta5
#
DISCID=22041204
DTITLE=vengaboys - We're going to Ibiza!
DYEAR=1900
DGENRE=Pop
TTITLE0=神の扉、開けたまへ
TTITLE1=ずぼらの花嫁(インストだで)
TTITLE2=木偶の棒陀羅
TTITLE3=烏滸の沙汰なり
EXTD=
EXTT0=
EXTT1=
EXTT2=
EXTT3=
PLAYORDER=
